<svg width="20" height="21" viewBox="0 0 20 21" fill="none" xmlns="http://www.w3.org/2000/svg">
<path fill-rule="evenodd" clip-rule="evenodd" d="M2.54 0.5H5.92C7.33 0.5 8.46 1.65 8.46 3.061V6.47C8.46 7.89 7.33 9.03 5.92 9.03H2.54C1.14 9.03 0 7.89 0 6.47V3.061C0 1.65 1.14 0.5 2.54 0.5ZM2.54 11.9697H5.92C7.33 11.9697 8.46 13.1107 8.46 14.5307V17.9397C8.46 19.3497 7.33 20.4997 5.92 20.4997H2.54C1.14 20.4997 0 19.3497 0 17.9397V14.5307C0 13.1107 1.14 11.9697 2.54 11.9697ZM17.4601 0.5H14.0801C12.6701 0.5 11.5401 1.65 11.5401 3.061V6.47C11.5401 7.89 12.6701 9.03 14.0801 9.03H17.4601C18.8601 9.03 20.0001 7.89 20.0001 6.47V3.061C20.0001 1.65 18.8601 0.5 17.4601 0.5ZM14.0801 11.9697H17.4601C18.8601 11.9697 20.0001 13.1107 20.0001 14.5307V17.9397C20.0001 19.3497 18.8601 20.4997 17.4601 20.4997H14.0801C12.6701 20.4997 11.5401 19.3497 11.5401 17.9397V14.5307C11.5401 13.1107 12.6701 11.9697 14.0801 11.9697Z" fill="url(#paint0_linear_29660_966)"/>
<defs>
<linearGradient id="paint0_linear_29660_966" x1="-7.33337" y1="-7.83321" x2="19.3329" y2="16.5003" gradientUnits="userSpaceOnUse">
<stop stop-color="#2E59DA"/>
<stop offset="1" stop-color="#7E4CE3"/>
</linearGradient>
</defs>
</svg>
