<svg width="20" height="21" viewBox="0 0 20 21" fill="none" xmlns="http://www.w3.org/2000/svg">
<path fill-rule="evenodd" clip-rule="evenodd" d="M18.8064 6.12361L18.184 5.04352C17.6574 4.1296 16.4905 3.81432 15.5753 4.33872V4.33872C15.1397 4.59534 14.6198 4.66815 14.1305 4.54109C13.6411 4.41402 13.2224 4.09752 12.9666 3.66137C12.8021 3.38415 12.7137 3.06839 12.7103 2.74604V2.74604C12.7251 2.22922 12.5302 1.7284 12.1698 1.35767C11.8094 0.986937 11.3143 0.777863 10.7973 0.778076H9.54326C9.03672 0.77807 8.55107 0.979914 8.19376 1.33895C7.83644 1.69798 7.63693 2.18459 7.63937 2.69112V2.69112C7.62435 3.73693 6.77224 4.57681 5.72632 4.5767C5.40397 4.57336 5.08821 4.48494 4.81099 4.32041V4.32041C3.89582 3.79601 2.72887 4.11129 2.20229 5.02522L1.5341 6.12361C1.00817 7.03639 1.31916 8.20261 2.22975 8.73231V8.73231C2.82166 9.07404 3.18629 9.70559 3.18629 10.3891C3.18629 11.0725 2.82166 11.7041 2.22975 12.0458V12.0458C1.32031 12.5719 1.00898 13.7353 1.5341 14.6454V14.6454L2.16568 15.7346C2.4124 16.1798 2.82636 16.5083 3.31595 16.6474C3.80554 16.7866 4.3304 16.7249 4.77438 16.476V16.476C5.21084 16.2213 5.73094 16.1516 6.2191 16.2822C6.70725 16.4128 7.12299 16.733 7.37392 17.1717C7.53845 17.4489 7.62686 17.7646 7.63021 18.087V18.087C7.63021 19.1435 8.48671 20 9.54326 20H10.7973C11.8502 20.0001 12.7053 19.1491 12.7103 18.0962V18.0962C12.7079 17.588 12.9086 17.1 13.2679 16.7407C13.6272 16.3814 14.1152 16.1807 14.6233 16.1831C14.9449 16.1917 15.2594 16.2798 15.5387 16.4394V16.4394C16.4515 16.9653 17.6177 16.6544 18.1474 15.7438V15.7438L18.8064 14.6454C19.0615 14.2075 19.1315 13.686 19.001 13.1964C18.8704 12.7067 18.55 12.2894 18.1108 12.0367V12.0367C17.6715 11.784 17.3511 11.3666 17.2206 10.8769C17.09 10.3873 17.16 9.86582 17.4151 9.42796C17.581 9.13834 17.8211 8.8982 18.1108 8.73231V8.73231C19.0159 8.20289 19.3262 7.04349 18.8064 6.13277V6.13277V6.12361Z" stroke="#9CA3AF" stroke-width="1.5" stroke-linecap="round" stroke-linejoin="round"/>
<circle cx="10.1752" cy="10.3891" r="2.63616" stroke="#9CA3AF" stroke-width="1.5" stroke-linecap="round" stroke-linejoin="round"/>
</svg>
